<svg xmlns="http://www.w3.org/2000/svg" viewBox="0 0 64 64" role="img" aria-label="Фавікон безпеки SmartEnergy">
  <defs>
    <linearGradient id="tile" x1="8" y1="6" x2="56" y2="58" gradientUnits="userSpaceOnUse">
      <stop stop-color="#0f172a"/>
      <stop offset="1" stop-color="#020617"/>
    </linearGradient>
    <linearGradient id="shield" x1="16" y1="10" x2="48" y2="55" gradientUnits="userSpaceOnUse">
      <stop stop-color="#134e4a"/>
      <stop offset="1" stop-color="#111827"/>
    </linearGradient>
    <linearGradient id="bolt" x1="24" y1="14" x2="40" y2="51" gradientUnits="userSpaceOnUse">
      <stop stop-color="#fde047"/>
      <stop offset=".52" stop-color="#22c55e"/>
      <stop offset="1" stop-color="#38bdf8"/>
    </linearGradient>
  </defs>
  <rect width="64" height="64" rx="14" fill="url(#tile)"/>
  <path d="M32 7 51 14v14c0 13.4-7.8 23.3-19 29C20.8 51.3 13 41.4 13 28V14l19-7Z" fill="url(#shield)" stroke="#22c55e" stroke-width="3" stroke-linejoin="round"/>
  <path d="M35.4 14 22 34.5h9.2l-3.4 15.5L42 27.2h-9.3L35.4 14Z" fill="url(#bolt)" stroke="#f8fafc" stroke-opacity=".72" stroke-width="1.3" stroke-linejoin="round"/>
  <path d="M18 24h-6M52 24h-6M18 39h-5M51 39h-5" stroke="#38bdf8" stroke-width="2.4" stroke-linecap="round"/>
  <circle cx="12" cy="24" r="2.3" fill="#38bdf8"/>
  <circle cx="52" cy="24" r="2.3" fill="#38bdf8"/>
  <circle cx="13" cy="39" r="2.1" fill="#22c55e"/>
  <circle cx="51" cy="39" r="2.1" fill="#22c55e"/>
  <path d="M21 16.7 32 12.5l11 4.2" fill="none" stroke="#a7f3d0" stroke-opacity=".7" stroke-width="1.6" stroke-linecap="round"/>
</svg>
